<?xml version="1.0" encoding="UTF-8" standalone="no"?>
<svg width="15px" height="18px" viewBox="0 0 15 18" version="1.1" xmlns="http://www.w3.org/2000/svg" xmlns:xlink="http://www.w3.org/1999/xlink">
    <!-- Generator: Sketch 41.2 (35397) - http://www.bohemiancoding.com/sketch -->
    <title>cv</title>
    <desc>Created with Sketch.</desc>
    <defs></defs>
    <g id="Page-1" stroke="none" stroke-width="1" fill="none" fill-rule="evenodd">
        <g id="CV">
            <path d="M4.308,9.04 L4.308,8.72 C4.308,7.64 4.42,6.96 5.18,6.96 L5.26,6.96 C5.86,6.96 5.98,7.44 5.98,8.16 L7.5,8.16 L7.5,7.848 C7.5,6.24 6.708,5.648 5.18,5.648 C3.5,5.648 2.764,6.56 2.764,8.72 L2.764,9.04 C2.764,11.2 3.5,12.112 5.18,12.112 C6.708,12.112 7.5,11.52 7.5,9.912 L7.5,9.84 L5.98,9.84 C5.98,10.4 5.796,10.8 5.26,10.8 L5.18,10.8 C4.42,10.8 4.308,10.12 4.308,9.04 Z M11.324,12 L12.812,5.76 L11.18,5.76 L10.284,10.24 L9.38,5.76 L7.756,5.76 L9.244,12 L11.324,12 Z" fill="#888888"></path>
            <path d="M2.1599939,0.9 C1.4669939,0.9 0.906293896,1.60875 0.906293896,2.475 L0.899993896,15.525 C0.899993896,16.39125 1.4669939,17.1 2.1599939,17.1 L13.2399939,17.1 C13.9329939,17.1 14.4999939,16.39125 14.4999939,15.525 L14.4999939,2.475 C14.4999939,1.60875 13.9329939,0.9 13.2399939,0.9 L2.1599939,0.9 Z" id="Path" stroke="#979797" stroke-width="1.5"></path>
        </g>
    </g>
</svg>