<?xml version="1.0" encoding="UTF-8"?>
<svg width="24px" height="28px" viewBox="0 0 24 28" version="1.1" xmlns="http://www.w3.org/2000/svg" xmlns:xlink="http://www.w3.org/1999/xlink">
    <!-- Generator: Sketch 42 (36781) - http://www.bohemiancoding.com/sketch -->
    <title>cv</title>
    <desc>Created with Sketch.</desc>
    <defs></defs>
    <g id="Page-1" stroke="none" stroke-width="1" fill="none" fill-rule="evenodd">
        <g id="v2">
            <g id="cv">
                <path d="M6.10656204,10.4993431 L6.10656204,10.0593431 C6.10656204,7.88134307 6.62356204,6.86934307 7.95456204,6.86934307 L8.03156204,6.86934307 C9.19756204,6.86934307 9.63756204,7.60634307 9.63756204,9.16834307 L10.792562,9.16834307 L10.792562,8.82734307 C10.792562,6.80334307 9.85756204,5.85734307 7.95456204,5.85734307 C5.89756204,5.85734307 4.92956204,7.08934307 4.92956204,10.0593431 L4.92956204,10.4993431 C4.92956204,13.4693431 5.89756204,14.7013431 7.95456204,14.7013431 C9.85756204,14.7013431 10.792562,13.7553431 10.792562,11.8303431 L10.792562,11.7203431 L9.63756204,11.7203431 C9.63756204,12.9633431 9.17556204,13.6893431 8.03156204,13.6893431 L7.95456204,13.6893431 C6.61256204,13.6893431 6.10656204,12.6773431 6.10656204,10.4993431 Z M15.390562,14.6353431 L17.755562,5.98934307 L16.523562,5.98934307 L14.598562,13.3483431 L12.662562,5.98934307 L11.430562,5.98934307 L13.795562,14.6353431 L15.390562,14.6353431 Z" id="CV" fill="#7E093C"></path>
                <path d="M3.0291904,0.98540146 C1.90510281,0.98540146 0.995613755,2.1350365 0.995613755,3.54014599 L0.985394777,24.7080292 C0.985394777,26.1131387 1.90510281,27.2627737 3.0291904,27.2627737 L21.0016154,27.2627737 C22.125703,27.2627737 23.045411,26.1131387 23.045411,24.7080292 L23.045411,3.54014599 C23.045411,2.1350365 22.125703,0.98540146 21.0016154,0.98540146 L3.0291904,0.98540146 Z" id="Path" stroke="#7E093C"></path>
                <path d="M4.9270073,19.1605839 L19.1605839,19.1605839" id="Line" stroke="#7E093C" stroke-linecap="square"></path>
                <path d="M4.9270073,22.4452555 L19.1605839,22.4452555" id="Line" stroke="#7E093C" stroke-linecap="square"></path>
            </g>
        </g>
    </g>
</svg>