<?xml version="1.0" encoding="UTF-8"?>
<svg width="30px" height="29px" viewBox="0 0 30 29" version="1.1" xmlns="http://www.w3.org/2000/svg" xmlns:xlink="http://www.w3.org/1999/xlink">
    <!-- Generator: Sketch 42 (36781) - http://www.bohemiancoding.com/sketch -->
    <title>github</title>
    <desc>Created with Sketch.</desc>
    <defs></defs>
    <g id="Page-1" stroke="none" stroke-width="1" fill="none" fill-rule="evenodd">
        <g id="v2" transform="translate(-122.000000, -1.000000)" stroke="#7E093C">
            <g id="github" transform="translate(121.722628, 0.094891)">
                <path d="M1,16.4722656 C1,22.423267 5.98020073,28.6049665 10.9860401,29.2541208 C11.6429745,29.3778895 11.8827555,28.9619593 11.8827555,28.6049665 C11.8827555,28.2850202 11.8712591,27.4380045 11.8646898,26.3139825 C8.10866788,26.3139825 7.43859489,23.5079698 7.43859489,23.5079698 C6.84160584,21.9520204 6.98020073,22.5377741 6.98020073,22.5377741 C5.7870438,21.7017039 5.0705292,21.7185432 5.0705292,21.7185432 C6.38850365,21.8136851 8.08239051,23.1069418 8.08239051,23.1069418 C9.25501825,25.1655437 11.1576642,25.5711171 11.9065693,25.2259119 C12.0256387,24.3553211 12.3656022,22.7617365 12.7408759,22.4249509 C9.82326642,22.0847975 6.75620438,20.9296229 6.75620438,15.7675418 C6.75620438,14.2966307 7.26779197,13.0943061 8.10866788,12.1521484 C7.97317518,11.811153 7.52235401,10.4421196 8.23677007,8.58727296 C8.23677007,8.58727296 9.34041971,8.22522845 11.8499088,9.96809388 C12.8985401,9.66919667 14.0218978,9.52016905 15.1395073,9.5142753 C16.2554745,9.52016905 17.3796533,9.66919667 18.4291058,9.96809388 C20.9369526,8.22522845 22.0381387,8.58727296 22.0381387,8.58727296 C22.7550182,10.4421196 22.3041971,11.811153 22.1687044,12.1521484 C23.0112226,13.0943061 23.5195255,14.2966307 23.5195255,15.7675418 C23.5195255,20.9422524 20.4475365,22.0814296 17.5208942,22.4148474 C17.9922445,22.8307776 18.4126825,23.6525344 18.4126825,24.9095866 C18.4126825,26.7105476 18.3962591,28.1629354 18.3962591,28.6049665 C18.3962591,28.9653271 18.6327555,29.3846252 19.2995438,29.2524368 C24.632841,28.6049665 29.2773723,22.4215831 29.2773723,16.4722656 C29.2773723,9.03098797 22.3945255,2 15.137865,2 C7.88284672,2 1,9.03098797 1,16.4722656 Z" id="Github"></path>
            </g>
        </g>
    </g>
</svg>