<?xml version="1.0" encoding="UTF-8" standalone="no"?>
<svg width="276px" height="51px" viewBox="0 0 276 51" version="1.1" xmlns="http://www.w3.org/2000/svg" xmlns:xlink="http://www.w3.org/1999/xlink">
        <path class="logo" d="M5.25,30.8 C6.383339,30.8 7.29166325,30.4416703 7.975,29.725 C8.65833675,29.0083298 9,27.8000085 9,26.1 L9,8.3 L3.45,8.3 L3.45,0.1 L26,0.1 L26,8.3 L23,8.3 L23,25.65 C23,28.2166795 22.6083373,30.3833245 21.825,32.15 C21.0416628,33.9166755 19.9750068,35.366661 18.625,36.5 C17.2749932,37.633339 15.6916758,38.4499975 13.875,38.95 C12.0583242,39.4500025 10.1333435,39.7 8.1,39.7 C6.5999925,39.7 5.150007,39.5916677 3.75,39.375 C2.349993,39.1583323 1.3333365,38.916668 0.7,38.65 L0.7,30.25 C1.433337,30.4166675 2.2166625,30.5499995 3.05,30.65 C3.8833375,30.7500005 4.6166635,30.8 5.25,30.8 Z M55.2,25.1 C55.2,27.566679 54.8500035,29.7083242 54.15,31.525 C53.4499965,33.3416757 52.4416733,34.8583273 51.125,36.075 C49.8083267,37.2916727 48.216676,38.199997 46.35,38.8 C44.483324,39.400003 42.4000115,39.7 40.1,39.7 C37.7999885,39.7 35.716676,39.400003 33.85,38.8 C31.983324,38.199997 30.3916732,37.2916727 29.075,36.075 C27.7583268,34.8583273 26.7500035,33.3416757 26.05,31.525 C25.3499965,29.7083242 25,27.566679 25,25.1 C25,22.6666545 25.3499965,20.5333425 26.05,18.7 C26.7500035,16.8666575 27.7583268,15.3416727 29.075,14.125 C30.3916732,12.9083273 31.983324,12.000003 33.85,11.4 C35.716676,10.799997 37.7999885,10.5 40.1,10.5 C42.4000115,10.5 44.483324,10.799997 46.35,11.4 C48.216676,12.000003 49.8083267,12.9083273 51.125,14.125 C52.4416733,15.3416727 53.4499965,16.8666575 54.15,18.7 C54.8500035,20.5333425 55.2,22.6666545 55.2,25.1 Z M40.1,30.8 C41.0666715,30.8 41.7916642,30.5500025 42.275,30.05 C42.7583358,29.5499975 43,28.733339 43,27.6 L43,22.6 C43,21.466661 42.7583358,20.6500025 42.275,20.15 C41.7916642,19.6499975 41.0666715,19.4 40.1,19.4 C39.1333285,19.4 38.4083357,19.6499975 37.925,20.15 C37.4416643,20.6500025 37.2,21.466661 37.2,22.6 L37.2,27.6 C37.2,28.733339 37.4416643,29.5499975 37.925,30.05 C38.4083357,30.5500025 39.1333285,30.8 40.1,30.8 Z M73.2,30.8 L75.4,30.8 L75.4,22.6 C75.4,21.466661 75.1583357,20.6500025 74.675,20.15 C74.1916643,19.6499975 73.4666715,19.4 72.5,19.4 C71.5333285,19.4 70.8083357,19.6499975 70.325,20.15 C69.8416643,20.6500025 69.6,21.466661 69.6,22.6 L69.6,30.8 L71.8,30.8 L71.8,39 L55.9,39 L55.9,30.8 L58.1,30.8 L58.1,19.4 L55.9,19.4 L55.9,11.2 L69.6,11.2 L69.6,14.6 C70.000002,14.199998 70.4499975,13.7583358 70.95,13.275 C71.4500025,12.7916642 72.0416632,12.350002 72.725,11.95 C73.4083367,11.549998 74.183329,11.2083348 75.05,10.925 C75.916671,10.6416653 76.916661,10.5 78.05,10.5 C80.783347,10.5 82.9416587,11.4749903 84.525,13.425 C86.1083413,15.3750098 86.9,18.4333125 86.9,22.6 L86.9,30.8 L89.1,30.8 L89.1,39 L73.2,39 L73.2,30.8 Z M114.15,39 L107.2,8.3 L105.2,8.3 L105.2,0.1 L125.05,0.1 L125.05,8.3 L121.8,8.3 L124.25,27.05 L124.75,27.05 L130.5,0.1 L144.9,0.1 L150.3,27.05 L150.8,27.05 L153.25,8.3 L150,8.3 L150,0.1 L167.35,0.1 L167.35,8.3 L165.35,8.3 L158.9,39 L141.45,39 L136.9,18.4 L136.4,18.4 L131.6,39 L114.15,39 Z M181.15,27.6 C181.15,28.733339 181.391664,29.5499975 181.875,30.05 C182.358336,30.5500025 183.083328,30.8 184.05,30.8 C185.016671,30.8 185.741664,30.5500025 186.225,30.05 C186.708336,29.5499975 186.95,28.733339 186.95,27.6 L186.95,19.4 L184.25,19.4 L184.25,11.2 L198.45,11.2 L198.45,36.2 C198.45,41.200025 197.191679,44.8833215 194.675,47.25 C192.158321,49.6166785 188.400025,50.8 183.4,50.8 C180.999988,50.8 178.675011,50.6416683 176.425,50.325 C174.174989,50.0083318 172.266675,49.616669 170.7,49.15 L170.7,40.95 C172.533343,41.283335 174.274992,41.5249993 175.925,41.675 C177.575008,41.8250008 179.44999,41.9 181.55,41.9 C183.350009,41.9 184.699995,41.6250028 185.6,41.075 C186.500004,40.5249973 186.95,39.4000085 186.95,37.7 L186.95,35.6 C186.549998,36.0333355 186.091669,36.483331 185.575,36.95 C185.058331,37.416669 184.46667,37.849998 183.8,38.25 C183.13333,38.650002 182.366671,38.9916652 181.5,39.275 C180.633329,39.5583347 179.633339,39.7 178.5,39.7 C175.766653,39.7 173.608341,38.7250098 172.025,36.775 C170.441659,34.8249902 169.65,31.7666875 169.65,27.6 L169.65,19.4 L167.45,19.4 L167.45,11.2 L181.15,11.2 L181.15,27.6 Z M218.15,35.6 C217.849998,36.000002 217.450002,36.4416643 216.95,36.925 C216.449997,37.4083357 215.84167,37.849998 215.125,38.25 C214.40833,38.650002 213.575005,38.9916652 212.625,39.275 C211.674995,39.5583347 210.600006,39.7 209.4,39.7 C206.499985,39.7 204.233341,39.03334 202.6,37.7 C200.966658,36.36666 200.15,34.433346 200.15,31.9 C200.15,28.7333175 201.624985,26.3416747 204.575,24.725 C207.525015,23.1083253 212.049969,22.3 218.15,22.3 C218.15,21.366662 217.850003,20.6500025 217.25,20.15 C216.649997,19.6499975 215.416676,19.4 213.55,19.4 C211.54999,19.4 209.541677,19.5499985 207.525,19.85 C205.508323,20.1500015 203.650009,20.4833315 201.95,20.85 L201.95,12.25 C203.650009,11.783331 205.733321,11.3750018 208.2,11.025 C210.666679,10.6749982 213.199987,10.5 215.8,10.5 C218.46668,10.5 220.691658,10.7499975 222.475,11.25 C224.258342,11.7500025 225.683328,12.5083282 226.75,13.525 C227.816672,14.5416717 228.566665,15.8083257 229,17.325 C229.433335,18.8416742 229.65,20.59999 229.65,22.6 L229.65,30.8 L231.85,30.8 L231.85,39 L218.15,39 L218.15,35.6 Z M218.15,27.3 C216.083323,27.3 214.600005,27.4416653 213.7,27.725 C212.799996,28.0083348 212.35,28.4999965 212.35,29.2 C212.35,30.266672 213.266658,30.8 215.1,30.8 C217.133344,30.8 218.15,29.733344 218.15,27.6 L218.15,27.3 Z M246.95,11.2 L253.7,11.2 L253.7,19.4 L246.95,19.4 L246.95,27.6 C246.95,28.733339 247.191664,29.5499975 247.675,30.05 C248.158336,30.5500025 248.883329,30.8 249.85,30.8 C251.18334,30.8 252.56666,30.6500015 254,30.35 L254,38.2 C252.933328,38.600002 251.658341,38.9499985 250.175,39.25 C248.691659,39.5500015 247.100009,39.7 245.4,39.7 C243.699992,39.7 242.191673,39.5166685 240.875,39.15 C239.558327,38.7833315 238.450004,38.1583377 237.55,37.275 C236.649995,36.3916622 235.958336,35.2333405 235.475,33.8 C234.991664,32.3666595 234.75,30.583344 234.75,28.45 L234.75,19.4 L232.55,19.4 L232.55,11.2 C233.88334,11.2 234.849997,10.8583367 235.45,10.175 C236.050003,9.49166325 236.35,8.616672 236.35,7.55 L236.35,5.3 L246.95,5.3 L246.95,11.2 Z M269.3,11.2 L276.05,11.2 L276.05,19.4 L269.3,19.4 L269.3,27.6 C269.3,28.733339 269.541664,29.5499975 270.025,30.05 C270.508336,30.5500025 271.233328,30.8 272.2,30.8 C273.53334,30.8 274.916659,30.6500015 276.35,30.35 L276.35,38.2 C275.283328,38.600002 274.008341,38.9499985 272.525,39.25 C271.041659,39.5500015 269.450009,39.7 267.75,39.7 C266.049991,39.7 264.541673,39.5166685 263.225,39.15 C261.908327,38.7833315 260.800004,38.1583377 259.9,37.275 C258.999995,36.3916622 258.308336,35.2333405 257.825,33.8 C257.341664,32.3666595 257.1,30.583344 257.1,28.45 L257.1,19.4 L254.9,19.4 L254.9,11.2 C256.23334,11.2 257.199997,10.8583367 257.8,10.175 C258.400003,9.49166325 258.7,8.616672 258.7,7.55 L258.7,5.3 L269.3,5.3 L269.3,11.2 Z" id="Jon-Wyatt" fill="#414141"></path>
</svg>
