<?xml version="1.0" encoding="UTF-8"?>
<svg width="180px" height="162px" viewBox="0 0 180 162" version="1.1" xmlns="http://www.w3.org/2000/svg" xmlns:xlink="http://www.w3.org/1999/xlink">
    <!-- Generator: Sketch 42 (36781) - http://www.bohemiancoding.com/sketch -->
    <title>logo-react</title>
    <desc>Created with Sketch.</desc>
    <defs></defs>
    <g id="Page-1" stroke="none" stroke-width="1" fill="none" fill-rule="evenodd">
        <g id="logo-react" fill-rule="nonzero">
            <path d="M0.530160352,80.684218 C0.530160352,94.1948694 13.7229968,106.80692 34.5215952,113.916272 C30.3682037,134.825262 33.7776832,151.678595 45.1641776,158.245131 C56.8677837,164.995183 74.3040124,160.322881 90.8535936,145.855972 C106.985515,159.73858 123.289001,165.201903 134.665651,158.616383 C146.35871,151.847347 149.914441,133.851426 145.646439,112.289228 C167.309888,105.127141 179.427638,94.3727614 179.427638,80.684218 C179.427638,67.4871628 166.210895,56.0704338 145.692143,49.0067854 C150.2871,26.5537211 146.393867,10.1096095 134.535572,3.27166594 C123.103374,-3.32088507 106.610044,2.42509689 90.2411669,16.6705196 C73.2113477,1.55040262 56.8811432,-3.06564872 45.0355047,3.79127933 C33.6138538,10.4028149 30.3548442,27.5627133 34.5215952,48.8584249 C14.424721,55.8651197 0.530160352,67.5406007 0.530160352,80.684218 Z" id="Shape" fill="#FFFFFF"></path>
            <path d="M141.346797,56.0212147 C139.655746,55.4411514 137.950348,54.9037892 136.232226,54.4096397 C136.517152,53.2518691 136.780637,52.0889268 137.022545,50.9214096 C140.893981,32.1281392 138.362711,16.9883346 129.718426,12.004546 C121.430627,7.22466527 107.875678,12.2084538 94.1857287,24.1215929 C92.8367611,25.2981713 91.5177363,26.5086451 90.2299169,27.7518553 C89.3674993,26.9251942 88.4898419,26.1145801 87.5973965,25.3204303 C73.2500199,12.581113 58.868893,7.21341518 50.233748,12.2119695 C41.953684,17.0052097 39.501165,31.2386792 42.9865826,49.0489732 C43.3333573,50.8127119 43.7248929,52.5673543 44.1608104,54.3112015 C42.1259509,54.8891747 40.1607013,55.5051169 38.2805305,56.1604345 C21.4602442,62.0245424 10.7178173,71.2158635 10.7178173,80.748906 C10.7178173,90.5955447 22.2491565,100.471715 39.7697608,106.459574 C41.1904231,106.942857 42.6229102,107.390655 44.0658878,107.802553 C43.5971121,109.681275 43.1809308,111.572731 42.8178313,113.474706 C39.4948368,130.975623 42.0900913,144.87159 50.3483583,149.635298 C58.8780337,154.553696 73.1937694,149.498188 87.1340335,137.312937 C88.2358389,136.349649 89.3418631,135.328 90.4492936,134.257132 C91.8441791,135.602966 93.2763089,136.909655 94.7440143,138.175678 C108.246931,149.794909 121.582503,154.486898 129.833739,149.710533 C138.35568,144.77737 141.124608,129.849208 137.528798,111.686645 C137.254578,110.299369 136.934653,108.882561 136.576057,107.439738 C137.581533,107.143016 138.568025,106.836452 139.530611,106.51723 C157.744502,100.482965 169.594359,90.7270301 169.594359,80.748906 C169.594359,71.1814101 158.505992,61.9282135 141.346797,56.0212147 Z" id="Shape" fill="#53C1DE"></path>
            <path d="M137.395907,100.075149 C136.527541,100.36273 135.635971,100.640466 134.727527,100.909765 C132.716574,94.5443252 130.00249,87.7752885 126.682308,80.7826563 C129.851317,73.9552597 132.459931,67.2734111 134.414634,60.9487528 C136.039568,61.4198502 137.617393,61.9155572 139.137561,62.4393893 C153.840018,67.4998191 162.807744,74.9832364 162.807744,80.748906 C162.807744,86.8907504 153.122122,94.8642496 137.39661,100.075149 L137.395907,100.075149 Z M130.870856,113.005015 C132.460634,121.036171 132.687745,128.297399 131.634456,133.973771 C130.688042,139.074279 128.785371,142.474618 126.432697,143.836582 C121.425705,146.734885 110.717732,142.967512 99.1709235,133.030873 C97.8469289,131.891802 96.5130905,130.675386 95.1757364,129.388657 C99.6525679,124.492057 104.126587,118.799513 108.493027,112.47837 C116.174024,111.797037 123.43033,110.682575 130.010928,109.161704 C130.334368,110.469527 130.622651,111.751333 130.870856,113.005015 L130.870856,113.005015 Z M64.8820645,143.335953 C59.990386,145.063544 56.0943402,145.112763 53.7395564,143.755018 C48.7276426,140.865152 46.6449703,129.706472 49.4863204,114.740341 C49.8242027,112.971659 50.2110732,111.212688 50.6464856,109.465456 C57.1539578,110.904764 64.3575292,111.940475 72.0568075,112.564855 C76.4520759,118.750294 81.0554709,124.435807 85.6947255,129.414673 C84.7087604,130.368444 83.6994624,131.297795 82.667749,132.201882 C76.5034044,137.590674 70.3264035,141.412891 64.8827676,143.335953 L64.8820645,143.335953 Z M41.9649341,100.03718 C34.2178429,97.389191 27.820059,93.9480706 23.4346344,90.1933541 C19.4942915,86.818328 17.5044323,83.4679114 17.5044323,80.748906 C17.5044323,74.9642519 26.1297334,67.5848979 40.5150791,62.5694685 C42.3206472,61.9427102 44.1441767,61.3689444 45.9833245,60.8489083 C47.9717774,67.3155989 50.5796882,74.0769013 53.7269001,80.9141417 C50.5389066,87.853336 47.8937299,94.7222172 45.8869957,101.264846 C44.5697802,100.887822 43.2620313,100.478476 41.9649341,100.03718 L41.9649341,100.03718 Z M49.6473372,47.7453694 C46.6611423,32.4853295 48.6439701,20.974381 53.6340868,18.0859212 C58.949753,15.0090224 70.7025783,19.3965563 83.0903304,30.3956258 C83.8820552,31.0987562 84.6772958,31.8349338 85.4739426,32.5964241 C80.8585943,37.5527905 76.2973872,43.1954123 71.9400878,49.3449912 C64.4679207,50.0375746 57.3149747,51.149927 50.7392988,52.6398604 C50.3342418,51.0175624 49.970139,49.3853127 49.6473372,47.7446663 L49.6473372,47.7453694 Z M118.179352,64.6676097 C116.626191,61.9847663 115.015414,59.3356938 113.348143,56.7222357 C118.417713,57.3620844 123.274235,58.2128723 127.834739,59.2542084 C126.465744,63.6424455 124.759247,68.2310748 122.7497,72.9350174 C121.281435,70.1490668 119.757682,67.3927148 118.179352,64.6676097 L118.179352,64.6676097 Z M90.2320262,37.4466178 C93.362363,40.837816 96.4976216,44.6248765 99.5815517,48.7332677 C93.3258078,48.4376577 87.0596263,48.4362499 80.8037502,48.7290489 C83.8904928,44.6586268 87.0524704,40.8771913 90.2320262,37.4466178 L90.2320262,37.4466178 Z M62.1054024,64.7140163 C60.5468337,67.4174488 59.0515712,70.1568877 57.6208364,72.9300955 C55.6443368,68.2423249 53.9533081,63.6333048 52.5723599,59.1824891 C57.1054418,58.1678719 61.9394636,57.3388811 66.9759869,56.7095794 C65.2900301,59.3392341 63.6660543,62.0081154 62.1054024,64.7140163 L62.1054024,64.7140163 Z M67.1208318,105.272689 C61.9176666,104.691904 57.0105192,103.905101 52.4788435,102.918609 C53.8815888,98.3890425 55.6098834,93.6808811 57.6285709,88.8925628 C59.0653372,91.6678261 60.5671703,94.4089176 62.1328245,97.1135639 C63.7304151,99.8725266 65.3935568,102.593008 67.1208318,105.272689 L67.1208318,105.272689 Z M90.4197621,124.530729 C87.2029403,121.059374 83.9945561,117.220282 80.8607037,113.090797 C83.902446,113.210329 87.0039544,113.270798 90.1560882,113.270798 C93.394707,113.270798 96.5960599,113.198376 99.7467874,113.05775 C96.6530134,117.26247 93.5290049,121.107187 90.4197621,124.530729 Z M122.814388,88.6485765 C124.937842,93.4889264 126.728012,98.1717752 128.149741,102.6247 C123.542831,103.67588 118.569589,104.522449 113.329158,105.151048 C115.008481,102.488795 116.634674,99.7933971 118.206774,97.0664541 C119.804909,94.2950273 121.341161,91.488373 122.814388,88.6485765 L122.814388,88.6485765 Z M112.327197,93.6759591 C109.920522,97.8567419 107.378534,101.95816 104.705263,105.973711 C99.9914768,106.31051 95.1201891,106.484183 90.1560882,106.484183 C85.212378,106.484183 80.4029658,106.330198 75.7714456,106.029961 C73.0288406,102.02376 70.4387655,97.9152435 68.0067762,93.7132251 C65.5861542,89.5335009 63.3251326,85.2633597 61.2285987,80.9120323 C63.3198,76.5594012 65.5739892,72.2869726 67.9863854,68.1038082 L67.9863854,68.1052144 C70.3980247,63.9211591 72.9677092,59.8302101 75.6898825,55.8412133 C80.414919,55.484023 85.2594878,55.2969903 90.1567913,55.2969903 C95.0758918,55.2969903 99.9267888,55.4854293 104.650419,55.8454321 C107.345058,59.8282905 109.898307,63.9049995 112.3054,68.0679485 C114.726092,72.2418063 117.010364,76.4933063 119.154594,80.8157034 C117.032421,85.1821389 114.755413,89.4716095 112.3279,93.6759591 L112.327197,93.6759591 Z M126.328634,17.8841227 C131.648519,20.952584 133.717831,33.3255703 130.375149,49.5517115 C130.156054,50.6087465 129.917889,51.6617389 129.660769,52.7101734 C123.069624,51.1893023 115.911756,50.0572623 108.417792,49.3541319 C104.052055,43.1377556 99.5288169,37.48529 94.9880005,32.5929084 C96.1778823,31.4457848 97.3960801,30.3284002 98.6414663,29.2417887 C110.371088,19.033741 121.333595,15.0033973 126.328634,17.8841227 L126.328634,17.8841227 Z" id="Shape" fill="#FFFFFF"></path>
            <path d="M90.1560882,66.5618431 C97.9917738,66.5618431 104.343151,72.9139235 104.343151,80.748906 C104.343151,88.5845916 97.9917738,94.936672 90.1560882,94.936672 C82.3211057,94.936672 75.9690253,88.5845916 75.9690253,80.748906 C75.9690253,72.9139235 82.3211057,66.5618431 90.1560882,66.5618431" id="Shape" fill="#53C1DE"></path>
        </g>
    </g>
</svg>