<?xml version="1.0" encoding="UTF-8" standalone="no"?>
<svg width="18px" height="18px" viewBox="0 0 18 18" version="1.1" xmlns="http://www.w3.org/2000/svg" xmlns:xlink="http://www.w3.org/1999/xlink">
    <!-- Generator: Sketch 41.2 (35397) - http://www.bohemiancoding.com/sketch -->
    <title>phone</title>
    <desc>Created with Sketch.</desc>
    <defs></defs>
    <g id="Page-1" stroke="none" stroke-width="1" fill="none" fill-rule="evenodd">
        <g id="phone" fill="#888888">
            <path d="M16.310388,5.48181818 L15.4092616,6.3 C17.0312891,7.77272727 17.0312891,10.0636364 15.4092616,11.6181818 L16.310388,12.4363636 C18.563204,10.5545455 18.563204,7.44545455 16.310388,5.48181818 L16.310388,5.48181818 Z M14.4180225,7.2 L13.5168961,8.01818182 C13.9674593,8.59090909 13.9674593,9.32727273 13.5168961,9.9 L14.4180225,10.7181818 C15.4993742,9.73636364 15.4993742,8.26363636 14.4180225,7.2 L14.4180225,7.2 Z M10.8135169,0 L1.80225282,0 C0.811013767,0 0,0.736363636 0,1.63636364 L0,16.3636364 C0,17.2636364 0.811013767,18 1.80225282,18 L10.8135169,18 C11.8047559,18 12.6157697,17.2636364 12.6157697,16.3636364 L12.6157697,1.63636364 C12.6157697,0.736363636 11.8047559,0 10.8135169,0 L10.8135169,0 Z M10.8135169,15.5454545 L1.80225282,15.5454545 L1.80225282,2.45454545 L10.8135169,2.45454545 L10.8135169,15.5454545 L10.8135169,15.5454545 Z" id="Shape"></path>
        </g>
    </g>
</svg>