<?xml version="1.0" encoding="UTF-8" standalone="no"?>
<svg width="18px" height="18px" viewBox="0 0 18 18" version="1.1" xmlns="http://www.w3.org/2000/svg" xmlns:xlink="http://www.w3.org/1999/xlink">
    <!-- Generator: Sketch 41.2 (35397) - http://www.bohemiancoding.com/sketch -->
    <title>envelope</title>
    <desc>Created with Sketch.</desc>
    <defs></defs>
    <g id="Page-1" stroke="none" stroke-width="1" fill="none" fill-rule="evenodd">
        <g id="envelope" fill="#888888">
            <path d="M16.2,2 L1.8,2 C0.81,2 0.009,2.7875 0.009,3.75 L0,14.25 C0,15.2125 0.81,16 1.8,16 L16.2,16 C17.19,16 18,15.2125 18,14.25 L18,3.75 C18,2.7875 17.19,2 16.2,2 L16.2,2 Z M16.2,14.25 L1.8,14.25 L1.8,5.5 L9,9.875 L16.2,5.5 L16.2,14.25 L16.2,14.25 Z M9,8.125 L1.8,3.75 L16.2,3.75 L9,8.125 L9,8.125 Z" id="Shape"></path>
        </g>
    </g>
</svg>