<?xml version="1.0" encoding="UTF-8" standalone="no"?>
<svg width="18px" height="18px" viewBox="0 0 18 18" version="1.1" xmlns="http://www.w3.org/2000/svg" xmlns:xlink="http://www.w3.org/1999/xlink">
    <!-- Generator: Sketch 41.2 (35397) - http://www.bohemiancoding.com/sketch -->
    <title>Github</title>
    <desc>Created with Sketch.</desc>
    <defs></defs>
    <g id="Page-1" stroke="none" stroke-width="1" fill="none" fill-rule="evenodd">
        <g id="github" fill="#888888">
            <path d="M8.9994375,0 C4.02975,0 0,4.13122676 0,9.22850194 C0,13.3049379 2.5785,16.7636796 6.1554375,17.9840727 C6.6054375,18.0688543 6.7696875,17.7839421 6.7696875,17.5394021 C6.7696875,17.3202389 6.7618125,16.7400331 6.7573125,15.970078 C4.253625,16.5277908 3.7254375,14.7329593 3.7254375,14.7329593 C3.3165,13.667134 2.7264375,13.3833753 2.7264375,13.3833753 C1.909125,12.8106672 2.7883125,12.8222021 2.7883125,12.8222021 C3.691125,12.8873743 4.1664375,13.7732551 4.1664375,13.7732551 C4.9696875,15.1833974 6.273,14.7762152 6.786,14.5397496 C6.8675625,13.943395 7.1004375,13.5367895 7.3575,13.3060914 C5.3589375,13.0730863 3.258,12.2817917 3.258,8.74576611 C3.258,7.73819202 3.6084375,6.9145997 4.1844375,6.26922168 C4.091625,6.03563983 3.7828125,5.09785193 4.2721875,3.82728198 C4.2721875,3.82728198 5.0281875,3.57928149 6.7471875,4.77314431 C7.4655,4.56839972 8.235,4.4663158 9.0005625,4.46227858 C9.765,4.4663158 10.5350625,4.56839972 11.2539375,4.77314431 C12.9718125,3.57928149 13.726125,3.82728198 13.726125,3.82728198 C14.2171875,5.09785193 13.908375,6.03563983 13.8155625,6.26922168 C14.3926875,6.9145997 14.740875,7.73819202 14.740875,8.74576611 C14.740875,12.2904429 12.6365625,13.0707793 10.6318125,13.2991704 C10.9546875,13.5840826 11.2426875,14.1469861 11.2426875,15.0080668 C11.2426875,16.2417251 11.2314375,17.2366108 11.2314375,17.5394021 C11.2314375,17.7862491 11.3934375,18.0734682 11.8501875,17.9829192 C15.42375,16.7602191 18,13.3037844 18,9.22850194 C18,4.13122676 13.97025,0 8.9994375,0" id="Github"></path>
        </g>
    </g>
</svg>