<?xml version="1.0" encoding="UTF-8" standalone="no"?>
<svg width="18px" height="18px" viewBox="0 0 18 18" version="1.1" xmlns="http://www.w3.org/2000/svg" xmlns:xlink="http://www.w3.org/1999/xlink">
    <!-- Generator: Sketch 41.2 (35397) - http://www.bohemiancoding.com/sketch -->
    <title>Shape</title>
    <desc>Created with Sketch.</desc>
    <defs></defs>
    <g id="Page-1" stroke="none" stroke-width="1" fill="none" fill-rule="evenodd">
        <g id="linkedin" fill="#888888">
            <path d="M16.2,0 L1.8,0 C0.81,0 0,0.81 0,1.8 L0,16.2 C0,17.19 0.81,18 1.8,18 L16.2,18 C17.19,18 18,17.19 18,16.2 L18,1.8 C18,0.81 17.19,0 16.2,0 Z M5.4,15.3 L2.7,15.3 L2.7,7.2 L5.4,7.2 L5.4,15.3 Z M4.05,5.67 C3.15,5.67 2.43,4.95 2.43,4.05 C2.43,3.15 3.15,2.43 4.05,2.43 C4.95,2.43 5.67,3.15 5.67,4.05 C5.67,4.95 4.95,5.67 4.05,5.67 Z M15.3,15.3 L12.6,15.3 L12.6,10.53 C12.6,9.81003529 11.97,9.18 11.25,9.18 C10.53,9.18 9.9,9.81003529 9.9,10.53 L9.9,15.3 L7.2,15.3 L7.2,7.2 L9.9,7.2 L9.9,8.28 C10.35,7.56 11.34,7.02 12.15,7.02 C13.86,7.02 15.3,8.46 15.3,10.17 L15.3,15.3 Z"></path>
        </g>
    </g>
</svg>