<?xml version="1.0" encoding="UTF-8"?>
<svg width="29px" height="28px" viewBox="0 0 29 28" version="1.1" xmlns="http://www.w3.org/2000/svg" xmlns:xlink="http://www.w3.org/1999/xlink">
    <!-- Generator: Sketch 42 (36781) - http://www.bohemiancoding.com/sketch -->
    <title>linkedin</title>
    <desc>Created with Sketch.</desc>
    <defs></defs>
    <g id="Page-1" stroke="none" stroke-width="1" fill="none" fill-rule="evenodd">
        <g id="v2" transform="translate(-38.000000, 0.000000)" stroke="#7E093C">
            <g id="linkedin" transform="translate(39.416058, 1.094891)">
                <path d="M23.649635,0 L2.62773723,0 C1.18248175,0 0,1.18248175 0,2.62773723 L0,23.649635 C0,25.0948905 1.18248175,26.2773723 2.62773723,26.2773723 L23.649635,26.2773723 C25.0948905,26.2773723 26.2773723,25.0948905 26.2773723,23.649635 L26.2773723,2.62773723 C26.2773723,1.18248175 25.0948905,0 23.649635,0 Z M7.88321168,22.3357664 L3.94160584,22.3357664 L3.94160584,10.5109489 L7.88321168,10.5109489 L7.88321168,22.3357664 Z M5.91240876,8.27737226 C4.59854015,8.27737226 3.54744526,7.22627737 3.54744526,5.91240876 C3.54744526,4.59854015 4.59854015,3.54744526 5.91240876,3.54744526 C7.22627737,3.54744526 8.27737226,4.59854015 8.27737226,5.91240876 C8.27737226,7.22627737 7.22627737,8.27737226 5.91240876,8.27737226 Z M22.3357664,22.3357664 L18.3941606,22.3357664 L18.3941606,15.3722628 C18.3941606,14.3212194 17.4744526,13.4014599 16.4233577,13.4014599 C15.3722628,13.4014599 14.4525547,14.3212194 14.4525547,15.3722628 L14.4525547,22.3357664 L10.5109489,22.3357664 L10.5109489,10.5109489 L14.4525547,10.5109489 L14.4525547,12.0875912 C15.1094891,11.0364964 16.5547445,10.2481752 17.7372263,10.2481752 C20.2335766,10.2481752 22.3357664,12.350365 22.3357664,14.8467153 L22.3357664,22.3357664 Z"></path>
            </g>
        </g>
    </g>
</svg>